<?xml version="1.0" encoding="UTF-8" standalone="no"?>
<!-- Created with Inkscape (http://www.inkscape.org/) -->

<svg
   width="115mm"
   height="26.501268mm"
   viewBox="28 87.8 115 26.51"
   version="1.1"
   id="svg1"
   inkscape:version="1.4 (e7c3feb1, 2024-10-09)"
   sodipodi:docname="ampel.svg"
   xmlns:inkscape="http://www.inkscape.org/namespaces/inkscape"
   xmlns:sodipodi="http://sodipodi.sourceforge.net/DTD/sodipodi-0.dtd"
   xmlns="http://www.w3.org/2000/svg"
   xmlns:svg="http://www.w3.org/2000/svg">
  <sodipodi:namedview
     id="namedview1"
     pagecolor="#ffffff"
     bordercolor="#000000"
     borderopacity="0.25"
     inkscape:showpageshadow="2"
     inkscape:pageopacity="0.0"
     inkscape:pagecheckerboard="0"
     inkscape:deskcolor="#d1d1d1"
     inkscape:document-units="mm"
     showguides="true"
     inkscape:zoom="1.4279254"
     inkscape:cx="320.04473"
     inkscape:cy="455.20585"
     inkscape:window-width="1512"
     inkscape:window-height="863"
     inkscape:window-x="0"
     inkscape:window-y="33"
     inkscape:window-maximized="0"
     inkscape:current-layer="layer1" />
  <defs
     id="defs1">
    <rect
       x="523.04641"
       y="376.7606"
       width="288.39203"
       height="170.76629"
       id="rect3" />
  </defs>
  <g
     inkscape:label="Layer 1"
     inkscape:groupmode="layer"
     id="layer1">
    <g
       id="g5"
       transform="translate(3.3175532,-0.55170733)"
       inkscape:export-filename="logo-ampel-text-750px.png"
       inkscape:export-xdpi="176.54527"
       inkscape:export-ydpi="176.54527">
      <circle
         style="fill:#ff0000;stroke-width:0.0932161"
         id="circle1"
         cx="35.865673"
         cy="97.867821"
         r="7.6808019" />
      <circle
         style="fill:#ffcc00;stroke-width:0.0932161"
         id="circle2"
         cx="43.602131"
         cy="97.867813"
         r="7.6808019" />
      <circle
         style="fill:#447821;stroke-width:0.0932161"
         id="circle3"
         cx="51.338589"
         cy="97.867821"
         r="7.6808019" />
    </g>
    <text
       xml:space="preserve"
       transform="scale(0.26458333)"
       id="text3"
       style="text-align:start;writing-mode:lr-tb;direction:ltr;white-space:pre;shape-inside:url(#rect3);display:inline;fill:#447821" />
    <path
       style="font-weight:bold;font-size:19.7556px;font-family:Ubuntu;-inkscape-font-specification:'Ubuntu, Bold';fill:#4d4d4d;stroke-width:0.264583"
       d="m 69.493126,101.09931 q 0.434623,0 0.829735,-0.0198 0.395112,-0.0198 0.63218,-0.0593 v -2.232385 q -0.177801,-0.03951 -0.533402,-0.07902 -0.3556,-0.03951 -0.651934,-0.03951 -0.414868,0 -0.790224,0.05927 -0.355601,0.03951 -0.63218,0.177801 -0.276578,0.138289 -0.434623,0.375356 -0.158045,0.237067 -0.158045,0.592668 0,0.691447 0.454379,0.968027 0.474135,0.25682 1.284114,0.25682 z m -0.237067,-8.613441 q 1.30387,0 2.173116,0.296334 0.869246,0.296334 1.382892,0.84949 0.533401,0.553157 0.750713,1.343381 0.217311,0.790224 0.217311,1.758249 v 6.124237 q -0.632179,0.13829 -1.758248,0.31609 -1.126069,0.19755 -2.726273,0.19755 -1.007535,0 -1.837271,-0.1778 -0.809979,-0.1778 -1.402647,-0.57291 -0.592668,-0.41487 -0.908758,-1.0668 -0.316089,-0.65194 -0.316089,-1.600205 0,-0.908757 0.3556,-1.540936 0.375357,-0.63218 0.98778,-1.007536 0.612424,-0.375356 1.402648,-0.533401 0.790224,-0.177801 1.639715,-0.177801 0.572912,0 1.007535,0.05927 0.454379,0.03951 0.730958,0.118534 v -0.276579 q 0,-0.750712 -0.454379,-1.205091 -0.454379,-0.454379 -1.580448,-0.454379 -0.750713,0 -1.48167,0.118534 -0.730957,0.09878 -1.264359,0.296334 l -0.375356,-2.370672 q 0.256823,-0.07902 0.632179,-0.158045 0.395112,-0.09878 0.849491,-0.158045 0.454379,-0.07902 0.948269,-0.118534 0.513645,-0.05927 1.027291,-0.05927 z m 12.900397,5.156211 q 0,-1.422403 -0.375356,-2.015071 -0.355601,-0.592668 -1.244603,-0.592668 -0.276579,0 -0.572913,0.03951 -0.296334,0.01976 -0.572912,0.05927 v 8.020771 H 76.447088 V 93.118048 q 0.375356,-0.09878 0.869246,-0.197556 0.513646,-0.118534 1.066802,-0.197556 0.572913,-0.09878 1.165581,-0.138289 0.592668,-0.05927 1.16558,-0.05927 1.126069,0 1.817515,0.296334 0.711202,0.276578 1.165581,0.67169 0.632179,-0.454379 1.442159,-0.711201 0.829735,-0.256823 1.521181,-0.256823 1.244603,0 2.034827,0.355601 0.809979,0.335845 1.284114,0.968024 0.474134,0.632179 0.651934,1.501426 0.177801,0.869246 0.177801,1.936048 v 5.867411 h -2.943585 v -5.51181 q 0,-1.422403 -0.375356,-2.015071 -0.355601,-0.592668 -1.244603,-0.592668 -0.237067,0 -0.67169,0.118534 -0.414868,0.118533 -0.691446,0.296334 0.138289,0.454378 0.1778,0.968024 0.03951,0.49389 0.03951,1.066802 v 5.669855 h -2.943584 z m 17.977584,0.395112 q 0,-1.363136 -0.612421,-2.173116 -0.612424,-0.829735 -1.817515,-0.829735 -0.395112,0 -0.730957,0.03951 -0.335846,0.01976 -0.553157,0.05927 v 5.314261 q 0.276578,0.1778 0.711201,0.29633 0.454379,0.11853 0.908758,0.11853 2.094091,0 2.094091,-2.825048 z m 3.00285,-0.07902 q 0,1.205091 -0.29633,2.19287 -0.29633,0.98778 -0.86925,1.69898 -0.57291,0.7112 -1.4224,1.10632 -0.849491,0.39511 -1.955804,0.39511 -0.612424,0 -1.145825,-0.11854 -0.533401,-0.11853 -1.027291,-0.33584 v 3.91161 H 93.476405 V 93.118048 q 0.395112,-0.118534 0.908758,-0.217312 0.513646,-0.118533 1.066802,-0.197556 0.572913,-0.07902 1.145825,-0.118533 0.592668,-0.05927 1.126069,-0.05927 1.284114,0 2.291651,0.395112 1.00753,0.375356 1.69898,1.086558 0.69145,0.691446 1.04705,1.698981 0.37535,1.007536 0.37535,2.252139 z m 1.77801,0.07902 q 0,-1.382892 0.41487,-2.410183 0.43462,-1.047047 1.12607,-1.738493 0.69144,-0.691446 1.58044,-1.047047 0.90876,-0.3556 1.85703,-0.3556 2.21263,0 3.49674,1.363136 1.28412,1.343381 1.28412,3.970876 0,0.256822 -0.0198,0.572912 -0.0198,0.296334 -0.0395,0.533401 h -6.67739 q 0.0988,0.908758 0.84949,1.442156 0.75071,0.5334 2.01507,0.5334 0.80998,0 1.58045,-0.13829 0.79022,-0.15804 1.28411,-0.37535 l 0.39511,2.39043 q -0.23706,0.11853 -0.63218,0.23706 -0.39511,0.11854 -0.889,0.19756 -0.47413,0.0988 -1.02729,0.15804 -0.55316,0.0593 -1.10631,0.0593 -1.40265,0 -2.4497,-0.41487 -1.02729,-0.41486 -1.71873,-1.12607 -0.6717,-0.73095 -1.00754,-1.71873 -0.31609,-0.987783 -0.31609,-2.133608 z m 6.91446,-1.126069 q -0.0198,-0.375356 -0.13829,-0.730957 -0.0988,-0.355601 -0.33584,-0.632179 -0.21732,-0.276579 -0.57292,-0.454379 -0.33584,-0.177801 -0.84949,-0.177801 -0.49389,0 -0.84949,0.177801 -0.3556,0.158045 -0.59267,0.434623 -0.23706,0.276578 -0.37535,0.651935 -0.11854,0.355601 -0.1778,0.730957 z m 9.26537,6.440327 q -1.28412,-0.0198 -2.0941,-0.27658 -0.79022,-0.25682 -1.26435,-0.7112 -0.45438,-0.47414 -0.63218,-1.12607 -0.15805,-0.67169 -0.15805,-1.501426 V 88.297681 l 2.94359,-0.474134 v 11.319959 q 0,0.395112 0.0593,0.711201 0.0593,0.316093 0.21731,0.533403 0.17781,0.21731 0.49389,0.3556 0.31609,0.13829 0.8495,0.1778 z"
       id="text4"
       aria-label="ampel" />
    <path
       style="font-weight:300;font-size:5.57761px;font-family:Ubuntu;-inkscape-font-specification:'Ubuntu, Light';fill:#4d4d4d;stroke-width:0.130725"
       d="m 34.754008,113.27622 q -0.105975,-0.28446 -0.200794,-0.5466 -0.09482,-0.26215 -0.184061,-0.51314 h -1.879655 q -0.09482,0.25099 -0.189638,0.51314 -0.09482,0.26214 -0.195217,0.5466 h -0.39601 q 0.223104,-0.60238 0.418321,-1.1211 0.195216,-0.52429 0.379277,-0.98723 0.189639,-0.46852 0.3737,-0.898 0.184061,-0.42948 0.390433,-0.85895 h 0.334656 q 0.206372,0.42947 0.390433,0.85895 0.184061,0.42948 0.368122,0.898 0.189639,0.46294 0.384855,0.98723 0.195217,0.51872 0.423899,1.1211 z m -1.327471,-3.43023 q -0.211949,0.47968 -0.412743,0.97608 -0.195217,0.49641 -0.407166,1.0709 h 1.645395 q -0.211949,-0.57449 -0.412743,-1.0709 -0.200794,-0.4964 -0.412743,-0.97608 z m 2.281247,0.647 q 0.16175,-0.0446 0.41832,-0.10039 0.262148,-0.0558 0.674891,-0.0558 0.546606,0 0.792021,0.31793 0.02789,-0.0223 0.105974,-0.0725 0.08366,-0.0558 0.206372,-0.11156 0.122707,-0.0558 0.284458,-0.0948 0.167328,-0.0391 0.368122,-0.0391 0.329079,0 0.529873,0.1004 0.206372,0.0948 0.317924,0.2733 0.111552,0.17291 0.150595,0.41832 0.03904,0.24542 0.03904,0.53545 v 1.61193 h -0.362545 v -1.4948 q 0,-0.28446 -0.02789,-0.49083 -0.02231,-0.21195 -0.100397,-0.34581 -0.07251,-0.13944 -0.211949,-0.20637 -0.13944,-0.0725 -0.362545,-0.0725 -0.167328,0 -0.306768,0.0335 -0.133863,0.0279 -0.23426,0.0725 -0.100397,0.0446 -0.167328,0.0892 -0.06135,0.0446 -0.08924,0.0669 0.0502,0.14502 0.07251,0.32908 0.02789,0.17848 0.02789,0.37927 v 1.63982 h -0.362545 v -1.4948 q 0,-0.28446 -0.02789,-0.49083 -0.02231,-0.21195 -0.100397,-0.34581 -0.07809,-0.13944 -0.223104,-0.20637 -0.13944,-0.0725 -0.3737,-0.0725 -0.262148,0 -0.446209,0.0279 -0.178483,0.0279 -0.228682,0.0502 v 2.53223 h -0.362544 z m 5.722633,2.52108 q 0.211949,0 0.368122,-0.0112 0.16175,-0.0167 0.273303,-0.039 v -1.01513 q -0.06135,-0.0279 -0.195217,-0.0558 -0.133862,-0.0335 -0.368122,-0.0335 -0.133863,0 -0.27888,0.0223 -0.145018,0.0167 -0.267726,0.0837 -0.122707,0.0614 -0.200794,0.17291 -0.07809,0.11155 -0.07809,0.29561 0,0.16175 0.0502,0.27331 0.05578,0.11155 0.150596,0.17848 0.100397,0.0669 0.234259,0.1004 0.139441,0.0279 0.312347,0.0279 z m -0.03347,-2.6884 q 0.284458,0 0.479674,0.0837 0.200794,0.0781 0.323502,0.22311 0.122707,0.13944 0.178483,0.33465 0.05578,0.19522 0.05578,0.4239 v 1.8183 q -0.05578,0.0167 -0.16175,0.039 -0.105975,0.0167 -0.245415,0.0391 -0.13944,0.0223 -0.312346,0.0335 -0.167329,0.0167 -0.345812,0.0167 -0.228682,0 -0.423899,-0.0502 -0.189638,-0.0502 -0.334656,-0.15618 -0.13944,-0.11155 -0.223105,-0.27888 -0.07809,-0.1729 -0.07809,-0.41832 0,-0.23426 0.08924,-0.40158 0.08924,-0.16733 0.250992,-0.27331 0.161751,-0.11155 0.384855,-0.16175 0.223105,-0.0502 0.485252,-0.0502 0.07809,0 0.161751,0.0112 0.08924,0.006 0.167328,0.0223 0.08366,0.0112 0.139441,0.0279 0.06135,0.0112 0.08366,0.0223 v -0.17849 q 0,-0.15059 -0.02231,-0.29003 -0.02231,-0.14502 -0.100397,-0.25657 -0.07251,-0.11713 -0.211949,-0.18406 -0.133863,-0.0725 -0.356967,-0.0725 -0.317924,0 -0.474097,0.0446 -0.156173,0.0446 -0.228682,0.0725 l -0.0502,-0.31793 q 0.09482,-0.0446 0.290035,-0.0837 0.200794,-0.039 0.479675,-0.039 z m 3.753735,0.36254 q -0.128285,0.14502 -0.334656,0.40159 -0.206372,0.25657 -0.440631,0.57449 -0.23426,0.31235 -0.462942,0.65816 -0.228682,0.34024 -0.401588,0.647 h 1.690016 v 0.30677 h -2.108337 v -0.26215 q 0.145018,-0.2733 0.356967,-0.60238 0.217527,-0.32908 0.446209,-0.647 0.228682,-0.3235 0.446209,-0.60238 0.217527,-0.28446 0.368122,-0.46294 h -1.533843 v -0.30677 h 1.974474 z m 1.109944,2.58801 h -0.362544 v -2.88362 h 0.362544 z m 0.08367,-3.75373 q 0,0.12829 -0.07809,0.20637 -0.07809,0.0725 -0.189639,0.0725 -0.111552,0 -0.189639,-0.0725 -0.07809,-0.0781 -0.07809,-0.20637 0,-0.12828 0.07809,-0.20079 0.07809,-0.0781 0.189639,-0.0781 0.111552,0 0.189639,0.0781 0.07809,0.0725 0.07809,0.20079 z m 0.875682,0.9705 q 0.16175,-0.0446 0.435053,-0.10039 0.273303,-0.0558 0.669313,-0.0558 0.329079,0 0.546606,0.0948 0.223105,0.0948 0.35139,0.2733 0.133862,0.17291 0.189638,0.41832 0.05578,0.24542 0.05578,0.54103 v 1.61193 h -0.362544 v -1.4948 q 0,-0.30677 -0.04462,-0.51871 -0.03904,-0.21195 -0.13944,-0.34582 -0.09482,-0.13386 -0.25657,-0.18964 -0.156174,-0.0614 -0.396011,-0.0614 -0.25657,0 -0.446209,0.0279 -0.184061,0.0279 -0.239837,0.0502 v 2.53223 h -0.362544 z m 5.053315,2.44858 q -0.03346,0.0279 -0.100397,0.0669 -0.06693,0.0335 -0.167328,0.0725 -0.09482,0.039 -0.223104,0.0669 -0.122708,0.0223 -0.278881,0.0223 -0.250992,0 -0.485252,-0.0781 -0.23426,-0.0781 -0.412743,-0.24541 -0.172906,-0.16733 -0.278881,-0.42948 -0.105974,-0.26772 -0.105974,-0.647 0,-0.30677 0.09482,-0.56892 0.09482,-0.26215 0.267726,-0.45179 0.178483,-0.19521 0.429475,-0.30119 0.256571,-0.11155 0.574494,-0.11155 0.401588,0 0.641425,0.0558 0.245415,0.0502 0.401588,0.10039 v 2.63264 q 0,0.647 -0.334656,0.9203 -0.334657,0.27888 -1.009548,0.27888 -0.27888,0 -0.507562,-0.0446 -0.223105,-0.039 -0.384855,-0.0948 l 0.07251,-0.32908 q 0.133862,0.0614 0.362544,0.10598 0.23426,0.0446 0.46852,0.0446 0.51314,0 0.741822,-0.20079 0.234259,-0.19522 0.234259,-0.6749 z m -0.0056,-2.19758 q -0.09482,-0.0279 -0.245415,-0.0502 -0.150596,-0.0279 -0.429476,-0.0279 -0.23426,0 -0.418321,0.0837 -0.178483,0.0781 -0.306768,0.22869 -0.128285,0.14501 -0.195217,0.35139 -0.06693,0.20079 -0.06693,0.44621 0,0.28445 0.07809,0.49082 0.07809,0.2008 0.200793,0.32908 0.128285,0.12829 0.290036,0.18964 0.161751,0.0558 0.329079,0.0558 0.245415,0 0.446209,-0.0725 0.206372,-0.0725 0.317924,-0.16733 z m 4.350538,1.97447 q -0.05578,-0.13944 -0.16175,-0.36812 -0.100397,-0.22868 -0.228682,-0.49641 -0.128285,-0.2733 -0.262148,-0.55776 -0.133863,-0.29004 -0.25657,-0.54103 -0.122707,-0.25099 -0.217527,-0.44063 -0.09482,-0.18964 -0.13944,-0.26772 -0.07251,0.6972 -0.11713,1.51711 -0.03904,0.81433 -0.07251,1.71232 h -0.3737 q 0.0502,-1.05417 0.111553,-2.01909 0.06693,-0.96493 0.16175,-1.84619 h 0.334657 q 0.167328,0.27888 0.356967,0.647 0.189639,0.36255 0.3737,0.75856 0.189639,0.39043 0.362544,0.77528 0.178484,0.37928 0.312347,0.68605 0.133862,-0.30677 0.306768,-0.68605 0.178484,-0.38485 0.362545,-0.77528 0.189639,-0.39601 0.379277,-0.75856 0.189639,-0.36812 0.356967,-0.647 h 0.317924 q 0.09482,0.88126 0.156173,1.84619 0.06693,0.96492 0.11713,2.01909 h -0.384855 q -0.03347,-0.89799 -0.07809,-1.71232 -0.03904,-0.81991 -0.111552,-1.51711 -0.04462,0.0781 -0.13944,0.26772 -0.09482,0.18964 -0.217527,0.44063 -0.122707,0.25099 -0.25657,0.54103 -0.133863,0.28446 -0.262148,0.55776 -0.128285,0.26773 -0.234259,0.49641 -0.100397,0.22868 -0.156173,0.36812 z m 5.281997,0.45737 q -0.161751,0.0446 -0.435053,0.10039 -0.273303,0.0558 -0.669314,0.0558 -0.323501,0 -0.541028,-0.0948 -0.217527,-0.0948 -0.351389,-0.26773 -0.133863,-0.1729 -0.195217,-0.41832 -0.05578,-0.24541 -0.05578,-0.54103 v -1.6175 h 0.362545 v 1.50037 q 0,0.30677 0.04462,0.51872 0.04462,0.21195 0.145018,0.34581 0.100397,0.12829 0.25657,0.18964 0.16175,0.0558 0.390432,0.0558 0.256571,0 0.446209,-0.0279 0.189639,-0.0279 0.239837,-0.0502 v -2.53223 h 0.362545 z m 1.690016,0.15059 q -0.184061,-0.006 -0.323501,-0.0502 -0.133863,-0.039 -0.228682,-0.12271 -0.08924,-0.0892 -0.13944,-0.2231 -0.04462,-0.13944 -0.04462,-0.34581 v -3.56967 l 0.362544,-0.0669 v 3.62544 q 0,0.13387 0.02231,0.21753 0.02789,0.0781 0.07809,0.12829 0.0502,0.0446 0.128285,0.0669 0.08366,0.0223 0.195217,0.039 z m 1.031853,-2.93382 h 1.148987 v 0.30677 h -1.148987 v 1.53384 q 0,0.24541 0.03904,0.40159 0.04462,0.15059 0.122707,0.23426 0.07809,0.0837 0.189639,0.11155 0.111552,0.0279 0.245415,0.0279 0.228682,0 0.368122,-0.0502 0.13944,-0.0558 0.217527,-0.1004 l 0.08924,0.30119 q -0.07809,0.0502 -0.273303,0.11713 -0.195217,0.0614 -0.423899,0.0614 -0.267725,0 -0.451786,-0.0669 -0.178484,-0.0725 -0.290036,-0.21194 -0.105974,-0.14502 -0.150595,-0.35697 -0.04462,-0.21195 -0.04462,-0.50199 v -2.65494 l 0.362545,-0.0669 z m 2.180841,2.88362 h -0.362544 v -2.88362 h 0.362544 z m 0.08366,-3.75373 q 0,0.12829 -0.07809,0.20637 -0.07809,0.0725 -0.189639,0.0725 -0.111552,0 -0.189639,-0.0725 -0.07809,-0.0781 -0.07809,-0.20637 0,-0.12828 0.07809,-0.20079 0.07809,-0.0781 0.189639,-0.0781 0.111552,0 0.189639,0.0781 0.07809,0.0725 0.07809,0.20079 z m 1.238228,3.23501 q 0.0502,0.0391 0.122707,0.0837 0.07809,0.0446 0.178484,0.0837 0.100397,0.0391 0.217527,0.0669 0.117129,0.0223 0.245415,0.0223 0.267725,0 0.446208,-0.0892 0.184061,-0.0948 0.295614,-0.25099 0.111552,-0.16175 0.16175,-0.3737 0.0502,-0.21753 0.0502,-0.45736 0,-0.56892 -0.284458,-0.87011 -0.284458,-0.30677 -0.752978,-0.30677 -0.267725,0 -0.435053,0.0279 -0.161751,0.0223 -0.245415,0.0502 z m 0,1.55058 h -0.362545 v -3.81509 q 0.161751,-0.0558 0.412743,-0.10597 0.250993,-0.0502 0.635848,-0.0502 0.317924,0 0.574494,0.10598 0.262147,0.10039 0.446209,0.29561 0.189638,0.19522 0.290035,0.4741 0.105975,0.27888 0.105975,0.63027 0,0.32908 -0.08924,0.60796 -0.08366,0.2733 -0.250992,0.47409 -0.167329,0.19522 -0.412743,0.30677 -0.239838,0.11155 -0.552184,0.11155 -0.284458,0 -0.496407,-0.0781 -0.206372,-0.0837 -0.301191,-0.15618 z m 5.103514,-1.13225 q -0.161751,0.0446 -0.435054,0.10039 -0.273303,0.0558 -0.669313,0.0558 -0.323502,0 -0.541028,-0.0948 -0.217527,-0.0948 -0.35139,-0.26773 -0.133862,-0.1729 -0.195216,-0.41832 -0.05578,-0.24541 -0.05578,-0.54103 v -1.6175 h 0.362544 v 1.50037 q 0,0.30677 0.04462,0.51872 0.04462,0.21195 0.145018,0.34581 0.100397,0.12829 0.25657,0.18964 0.161751,0.0558 0.390433,0.0558 0.25657,0 0.446209,-0.0279 0.189638,-0.0279 0.239837,-0.0502 v -2.53223 h 0.362545 z m 1.941008,-2.83901 q 0.178484,0 0.334657,0.0279 0.16175,0.0279 0.223104,0.0558 l -0.07251,0.31234 q -0.04462,-0.0223 -0.184061,-0.0446 -0.133863,-0.0279 -0.356967,-0.0279 -0.23426,0 -0.379278,0.0335 -0.13944,0.0335 -0.184061,0.0558 v 2.52666 h -0.362544 v -2.74976 q 0.13944,-0.0614 0.384855,-0.12271 0.245415,-0.0669 0.596804,-0.0669 z m 1.466914,2.42068 q 0.0502,0.0391 0.122708,0.0837 0.07809,0.0446 0.178483,0.0837 0.100397,0.0391 0.217527,0.0669 0.11713,0.0223 0.245415,0.0223 0.267725,0 0.446209,-0.0892 0.184061,-0.0948 0.295613,-0.25099 0.111552,-0.16175 0.161751,-0.3737 0.0502,-0.21753 0.0502,-0.45736 0,-0.56892 -0.284458,-0.87011 -0.284458,-0.30677 -0.752977,-0.30677 -0.267725,0 -0.435054,0.0279 -0.16175,0.0223 -0.245415,0.0502 z m 0,1.55058 h -0.362544 v -3.81509 q 0.16175,-0.0558 0.412743,-0.10597 0.250992,-0.0502 0.635847,-0.0502 0.317924,0 0.574494,0.10598 0.262148,0.10039 0.446209,0.29561 0.189639,0.19522 0.290036,0.4741 0.105974,0.27888 0.105974,0.63027 0,0.32908 -0.08924,0.60796 -0.08366,0.2733 -0.250993,0.47409 -0.167328,0.19522 -0.412743,0.30677 -0.239837,0.11155 -0.552183,0.11155 -0.284458,0 -0.496408,-0.0781 -0.206371,-0.0837 -0.301191,-0.15618 z m 5.348933,-2.47088 q 0,0.34023 -0.100397,0.61911 -0.09482,0.27888 -0.273303,0.4741 -0.172906,0.19522 -0.412743,0.30677 -0.239838,0.10597 -0.529873,0.10597 -0.290036,0 -0.529873,-0.10597 -0.239837,-0.11155 -0.418321,-0.30677 -0.172906,-0.19522 -0.273303,-0.4741 -0.09482,-0.27888 -0.09482,-0.61911 0,-0.34024 0.09482,-0.61912 0.100397,-0.27888 0.273303,-0.47409 0.178484,-0.2008 0.418321,-0.30677 0.239837,-0.11155 0.529873,-0.11155 0.290035,0 0.529873,0.11155 0.239837,0.10597 0.412743,0.30677 0.178483,0.19521 0.273303,0.47409 0.100397,0.27888 0.100397,0.61912 z m -0.384855,0 q 0,-0.54103 -0.250993,-0.85895 -0.250992,-0.3235 -0.680468,-0.3235 -0.429476,0 -0.680469,0.3235 -0.250992,0.31792 -0.250992,0.85895 0,0.54103 0.250992,0.85895 0.250993,0.31792 0.680469,0.31792 0.429476,0 0.680468,-0.31792 0.250993,-0.31792 0.250993,-0.85895 z m 1.762525,1.18245 q 0.312347,0 0.513141,-0.10039 0.206371,-0.10598 0.206371,-0.35139 0,-0.11713 -0.03904,-0.2008 -0.03347,-0.0837 -0.11713,-0.15059 -0.08366,-0.0669 -0.223104,-0.12829 -0.133863,-0.0613 -0.334657,-0.14502 -0.161751,-0.0669 -0.306769,-0.13386 -0.145017,-0.0725 -0.25657,-0.16175 -0.111552,-0.0948 -0.178483,-0.2231 -0.06693,-0.12829 -0.06693,-0.31235 0,-0.35139 0.262147,-0.56892 0.267726,-0.21752 0.730667,-0.21752 0.295613,0 0.485252,0.0502 0.195217,0.0502 0.273303,0.0892 l -0.08366,0.3235 q -0.06693,-0.0335 -0.228682,-0.0892 -0.156173,-0.0558 -0.462942,-0.0558 -0.122707,0 -0.234259,0.0279 -0.105975,0.0223 -0.189639,0.0781 -0.08366,0.0502 -0.133863,0.13387 -0.0502,0.0781 -0.0502,0.19521 0,0.11713 0.04462,0.2008 0.04462,0.0837 0.128285,0.15059 0.08924,0.0614 0.211949,0.11713 0.128285,0.0558 0.290036,0.12271 0.167328,0.0669 0.317923,0.13944 0.156173,0.0669 0.273303,0.16733 0.11713,0.0948 0.189639,0.23426 0.07251,0.13386 0.07251,0.34023 0,0.39044 -0.295613,0.59123 -0.290036,0.20079 -0.797599,0.20079 -0.379277,0 -0.580071,-0.0669 -0.200794,-0.0613 -0.267725,-0.0948 l 0.09482,-0.32908 q 0.01673,0.0112 0.07251,0.039 0.05578,0.0223 0.150595,0.0558 0.09482,0.0279 0.223105,0.0502 0.133862,0.0223 0.306768,0.0223 z m 1.623082,-1.18803 q 0,-0.37928 0.105975,-0.65816 0.111552,-0.28445 0.284458,-0.47409 0.178484,-0.18964 0.401588,-0.27888 0.228682,-0.0948 0.468519,-0.0948 0.529873,0 0.842219,0.34581 0.317924,0.34581 0.317924,1.06532 0,0.0446 -0.0056,0.0892 0,0.0446 -0.0056,0.0837 h -2.024672 q 0.01673,0.52987 0.262147,0.81433 0.245415,0.28446 0.780866,0.28446 0.295613,0 0.468519,-0.0558 0.172906,-0.0558 0.250992,-0.0948 l 0.06693,0.31235 q -0.07809,0.0446 -0.295614,0.10597 -0.211949,0.0614 -0.501985,0.0614 -0.379277,0 -0.647002,-0.11156 -0.267726,-0.11155 -0.440632,-0.31234 -0.172905,-0.2008 -0.250992,-0.4741 -0.07809,-0.27888 -0.07809,-0.60796 z m 2.046983,-0.22868 q -0.01116,-0.45179 -0.211949,-0.70278 -0.200794,-0.25099 -0.568916,-0.25099 -0.195216,0 -0.351389,0.0781 -0.150596,0.0781 -0.267726,0.21195 -0.111552,0.12829 -0.178483,0.30119 -0.06135,0.17291 -0.07251,0.36255 z m 3.452547,-2.22547 q 0.819909,0 1.221497,0.31235 0.401588,0.31235 0.401588,0.88684 0,0.32908 -0.11713,0.56334 -0.11713,0.22868 -0.334656,0.3737 -0.217527,0.13944 -0.535451,0.20637 -0.312346,0.0613 -0.708357,0.0613 h -0.524295 v 1.4948 h -0.379277 v -3.79277 q 0.200794,-0.0558 0.468519,-0.0781 0.273303,-0.0279 0.507562,-0.0279 z m 0.01673,0.32908 q -0.211949,0 -0.362544,0.0167 -0.145018,0.0112 -0.250993,0.0223 v 1.70674 h 0.479675 q 0.306768,0 0.552183,-0.0335 0.250992,-0.0391 0.423898,-0.13386 0.178484,-0.1004 0.273303,-0.27331 0.09482,-0.1729 0.09482,-0.44063 0,-0.25657 -0.105975,-0.4239 -0.100397,-0.16733 -0.273303,-0.26214 -0.167328,-0.1004 -0.384855,-0.13944 -0.217527,-0.0391 -0.446209,-0.0391 z m 4.690775,2.13065 q 0,0.34023 -0.100397,0.61911 -0.09482,0.27888 -0.273303,0.4741 -0.172906,0.19522 -0.412743,0.30677 -0.239837,0.10597 -0.529873,0.10597 -0.290036,0 -0.529873,-0.10597 -0.239837,-0.11155 -0.418321,-0.30677 -0.172905,-0.19522 -0.273302,-0.4741 -0.09482,-0.27888 -0.09482,-0.61911 0,-0.34024 0.09482,-0.61912 0.100397,-0.27888 0.273302,-0.47409 0.178484,-0.2008 0.418321,-0.30677 0.239837,-0.11155 0.529873,-0.11155 0.290036,0 0.529873,0.11155 0.239837,0.10597 0.412743,0.30677 0.178484,0.19521 0.273303,0.47409 0.100397,0.27888 0.100397,0.61912 z m -0.384855,0 q 0,-0.54103 -0.250992,-0.85895 -0.250993,-0.3235 -0.680469,-0.3235 -0.429476,0 -0.680468,0.3235 -0.250993,0.31792 -0.250993,0.85895 0,0.54103 0.250993,0.85895 0.250992,0.31792 0.680468,0.31792 0.429476,0 0.680469,-0.31792 0.250992,-0.31792 0.250992,-0.85895 z m 1.90197,1.48922 q -0.184061,-0.006 -0.323502,-0.0502 -0.133862,-0.039 -0.228682,-0.12271 -0.08924,-0.0892 -0.13944,-0.2231 -0.04462,-0.13944 -0.04462,-0.34581 v -3.56967 l 0.362545,-0.0669 v 3.62544 q 0,0.13387 0.02231,0.21753 0.02789,0.0781 0.07809,0.12829 0.0502,0.0446 0.128285,0.0669 0.08366,0.0223 0.195216,0.039 z m 1.054161,-0.0502 h -0.362545 v -2.88362 h 0.362545 z m 0.08366,-3.75373 q 0,0.12829 -0.07809,0.20637 -0.07809,0.0725 -0.189638,0.0725 -0.111553,0 -0.189639,-0.0725 -0.07809,-0.0781 -0.07809,-0.20637 0,-0.12828 0.07809,-0.20079 0.07809,-0.0781 0.189639,-0.0781 0.111552,0 0.189638,0.0781 0.07809,0.0725 0.07809,0.20079 z m 2.069291,3.81509 q -0.334656,0 -0.591226,-0.10598 -0.25657,-0.10597 -0.429476,-0.30119 -0.167329,-0.20079 -0.25657,-0.4741 -0.08924,-0.27888 -0.08924,-0.61353 0,-0.34024 0.08924,-0.61912 0.09482,-0.27888 0.267725,-0.47967 0.172906,-0.2008 0.418321,-0.30677 0.245415,-0.11155 0.552183,-0.11155 0.234261,0 0.435051,0.039 0.20637,0.039 0.31793,0.1004 l -0.0948,0.31234 q -0.11156,-0.0558 -0.251,-0.0892 -0.13944,-0.0335 -0.373695,-0.0335 -0.479675,0 -0.730667,0.31234 -0.245415,0.30677 -0.245415,0.87569 0,0.25657 0.05578,0.47409 0.05578,0.21195 0.178484,0.36813 0.128285,0.15059 0.323501,0.23983 0.200794,0.0837 0.485252,0.0837 0.234264,0 0.390434,-0.0502 0.16175,-0.0558 0.23426,-0.0948 l 0.0781,0.31235 q -0.1004,0.0558 -0.31793,0.10597 -0.21195,0.0558 -0.446208,0.0558 z m 2.219878,0 q -0.18406,-0.34024 -0.35697,-0.70836 -0.16732,-0.36812 -0.31792,-0.74182 -0.14502,-0.37928 -0.26772,-0.75298 -0.12271,-0.37928 -0.21195,-0.74182 h 0.38485 q 0.0614,0.26772 0.15617,0.58007 0.0948,0.30677 0.21195,0.63585 0.12271,0.32908 0.26773,0.67489 0.14502,0.34581 0.31235,0.68047 0.1227,-0.34582 0.21752,-0.65258 0.0948,-0.30677 0.17291,-0.60796 0.0837,-0.30677 0.15617,-0.6247 0.0781,-0.31792 0.16175,-0.68604 h 0.36255 q -0.17849,0.80875 -0.40717,1.57288 -0.22868,0.76414 -0.49641,1.39998 -0.10597,0.251 -0.21752,0.42948 -0.11156,0.18406 -0.251,0.30119 -0.13386,0.11713 -0.31792,0.17291 -0.17848,0.0558 -0.4239,0.0558 -0.13944,0 -0.25657,-0.0335 -0.11155,-0.0335 -0.13944,-0.0502 l 0.0725,-0.30119 q 0.0223,0.0167 0.12271,0.0446 0.10597,0.0335 0.21752,0.0335 0.15618,0 0.27889,-0.0335 0.12828,-0.0335 0.22868,-0.11713 0.10039,-0.0781 0.17848,-0.20637 0.0837,-0.12829 0.16175,-0.3235 z m 3.15137,-0.0614 v -3.86528 h 2.23104 v 0.32908 h -1.85177 v 1.3442 h 1.65098 v 0.3235 h -1.65098 v 1.53942 h 1.99679 v 0.32908 z m 3.07326,-2.78323 q 0.16175,-0.0446 0.43505,-0.10039 0.27331,-0.0558 0.66932,-0.0558 0.32907,0 0.5466,0.0948 0.22311,0.0948 0.35139,0.2733 0.13386,0.17291 0.18964,0.41832 0.0558,0.24542 0.0558,0.54103 v 1.61193 h -0.36255 v -1.4948 q 0,-0.30677 -0.0446,-0.51871 -0.039,-0.21195 -0.13944,-0.34582 -0.0948,-0.13386 -0.25657,-0.18964 -0.15617,-0.0614 -0.39601,-0.0614 -0.25657,0 -0.44621,0.0279 -0.18406,0.0279 -0.23984,0.0502 v 2.53223 h -0.36254 z m 5.05331,2.44858 q -0.0335,0.0279 -0.10039,0.0669 -0.0669,0.0335 -0.16733,0.0725 -0.0948,0.039 -0.22311,0.0669 -0.1227,0.0223 -0.27888,0.0223 -0.25099,0 -0.48525,-0.0781 -0.23426,-0.0781 -0.41274,-0.24541 -0.17291,-0.16733 -0.27888,-0.42948 -0.10598,-0.26772 -0.10598,-0.647 0,-0.30677 0.0948,-0.56892 0.0948,-0.26215 0.26773,-0.45179 0.17848,-0.19521 0.42947,-0.30119 0.25657,-0.11155 0.5745,-0.11155 0.40159,0 0.64142,0.0558 0.24542,0.0502 0.40159,0.10039 v 2.63264 q 0,0.647 -0.33466,0.9203 -0.33465,0.27888 -1.00954,0.27888 -0.27888,0 -0.50757,-0.0446 -0.2231,-0.039 -0.38485,-0.0948 l 0.0725,-0.32908 q 0.13386,0.0614 0.36254,0.10598 0.23426,0.0446 0.46852,0.0446 0.51314,0 0.74182,-0.20079 0.23426,-0.19522 0.23426,-0.6749 z m -0.006,-2.19758 q -0.0948,-0.0279 -0.24542,-0.0502 -0.15059,-0.0279 -0.42947,-0.0279 -0.23426,0 -0.41833,0.0837 -0.17848,0.0781 -0.30676,0.22869 -0.12829,0.14501 -0.19522,0.35139 -0.0669,0.20079 -0.0669,0.44621 0,0.28445 0.0781,0.49082 0.0781,0.2008 0.2008,0.32908 0.12828,0.12829 0.29003,0.18964 0.16176,0.0558 0.32908,0.0558 0.24542,0 0.44621,-0.0725 0.20637,-0.0725 0.31793,-0.16733 z m 1.68443,2.53223 h -0.36254 v -2.88362 h 0.36254 z m 0.0837,-3.75373 q 0,0.12829 -0.0781,0.20637 -0.0781,0.0725 -0.18964,0.0725 -0.11155,0 -0.18964,-0.0725 -0.0781,-0.0781 -0.0781,-0.20637 0,-0.12828 0.0781,-0.20079 0.0781,-0.0781 0.18964,-0.0781 0.11155,0 0.18964,0.0781 0.0781,0.0725 0.0781,0.20079 z m 0.87568,0.9705 q 0.16175,-0.0446 0.43505,-0.10039 0.27331,-0.0558 0.66932,-0.0558 0.32908,0 0.5466,0.0948 0.22311,0.0948 0.35139,0.2733 0.13386,0.17291 0.18964,0.41832 0.0558,0.24542 0.0558,0.54103 v 1.61193 h -0.36255 v -1.4948 q 0,-0.30677 -0.0446,-0.51871 -0.039,-0.21195 -0.13944,-0.34582 -0.0948,-0.13386 -0.25657,-0.18964 -0.15617,-0.0614 -0.39601,-0.0614 -0.25657,0 -0.44621,0.0279 -0.18406,0.0279 -0.23984,0.0502 v 2.53223 h -0.36254 z m 3.00075,1.33863 q 0,-0.37928 0.10598,-0.65816 0.11155,-0.28445 0.28446,-0.47409 0.17848,-0.18964 0.40158,-0.27888 0.22869,-0.0948 0.46852,-0.0948 0.52988,0 0.84222,0.34581 0.31793,0.34581 0.31793,1.06532 0,0.0446 -0.006,0.0892 0,0.0446 -0.006,0.0837 h -2.02467 q 0.0167,0.52987 0.26215,0.81433 0.24541,0.28446 0.78086,0.28446 0.29562,0 0.46852,-0.0558 0.17291,-0.0558 0.25099,-0.0948 l 0.0669,0.31235 q -0.0781,0.0446 -0.29562,0.10597 -0.21195,0.0614 -0.50198,0.0614 -0.37928,0 -0.64701,-0.11156 -0.26772,-0.11155 -0.44063,-0.31234 -0.1729,-0.2008 -0.25099,-0.4741 -0.0781,-0.27888 -0.0781,-0.60796 z m 2.04699,-0.22868 q -0.0112,-0.45179 -0.21195,-0.70278 -0.2008,-0.25099 -0.56892,-0.25099 -0.19522,0 -0.35139,0.0781 -0.15059,0.0781 -0.26772,0.21195 -0.11156,0.12829 -0.17849,0.30119 -0.0614,0.17291 -0.0725,0.36255 z m 2.43742,0.006 q 0,-0.80876 0.26215,-1.48923 0.26772,-0.68046 0.69162,-1.21034 l 0.26215,0.17849 q -0.44063,0.5466 -0.64701,1.16014 -0.20079,0.60796 -0.20079,1.36094 0,0.75297 0.20079,1.36651 0.20638,0.60796 0.64701,1.15457 l -0.26215,0.17848 q -0.4239,-0.52987 -0.69162,-1.21034 -0.26215,-0.68047 -0.26215,-1.48922 z m 2.65494,1.40555 q 0.21195,0 0.36812,-0.0112 0.16175,-0.0167 0.2733,-0.039 v -1.01513 q -0.0614,-0.0279 -0.19521,-0.0558 -0.13386,-0.0335 -0.36812,-0.0335 -0.13387,0 -0.27888,0.0223 -0.14502,0.0167 -0.26773,0.0837 -0.12271,0.0614 -0.20079,0.17291 -0.0781,0.11155 -0.0781,0.29561 0,0.16175 0.0502,0.27331 0.0558,0.11155 0.15059,0.17848 0.1004,0.0669 0.23426,0.1004 0.13944,0.0279 0.31235,0.0279 z m -0.0335,-2.6884 q 0.28446,0 0.47968,0.0837 0.20079,0.0781 0.3235,0.22311 0.12271,0.13944 0.17848,0.33465 0.0558,0.19522 0.0558,0.4239 v 1.8183 q -0.0558,0.0167 -0.16175,0.039 -0.10598,0.0167 -0.24542,0.0391 -0.13944,0.0223 -0.31234,0.0335 -0.16733,0.0167 -0.34581,0.0167 -0.22869,0 -0.4239,-0.0502 -0.18964,-0.0502 -0.33466,-0.15618 -0.13944,-0.11155 -0.2231,-0.27888 -0.0781,-0.1729 -0.0781,-0.41832 0,-0.23426 0.0892,-0.40158 0.0892,-0.16733 0.25099,-0.27331 0.16175,-0.11155 0.38486,-0.16175 0.2231,-0.0502 0.48525,-0.0502 0.0781,0 0.16175,0.0112 0.0892,0.006 0.16733,0.0223 0.0837,0.0112 0.13944,0.0279 0.0613,0.0112 0.0837,0.0223 v -0.17849 q 0,-0.15059 -0.0223,-0.29003 -0.0223,-0.14502 -0.10039,-0.25657 -0.0725,-0.11713 -0.21195,-0.18406 -0.13386,-0.0725 -0.35697,-0.0725 -0.31792,0 -0.4741,0.0446 -0.15617,0.0446 -0.22868,0.0725 l -0.0502,-0.31793 q 0.0948,-0.0446 0.29004,-0.0837 0.20079,-0.039 0.47967,-0.039 z m 1.96332,0.16732 q 0.16175,-0.0446 0.43506,-0.10039 0.2733,-0.0558 0.66931,-0.0558 0.32908,0 0.54661,0.0948 0.2231,0.0948 0.35139,0.2733 0.13386,0.17291 0.18963,0.41832 0.0558,0.24542 0.0558,0.54103 v 1.61193 h -0.36254 v -1.4948 q 0,-0.30677 -0.0446,-0.51871 -0.039,-0.21195 -0.13944,-0.34582 -0.0948,-0.13386 -0.25657,-0.18964 -0.15617,-0.0614 -0.39601,-0.0614 -0.25657,0 -0.4462,0.0279 -0.18407,0.0279 -0.23984,0.0502 v 2.53223 h -0.36255 z m 5.46607,2.69399 q -0.16175,0.0558 -0.41274,0.10598 -0.251,0.0502 -0.63585,0.0502 -0.31793,0 -0.58007,-0.10039 -0.25657,-0.10598 -0.44621,-0.30119 -0.18406,-0.19522 -0.29004,-0.4741 -0.10039,-0.27888 -0.10039,-0.63027 0,-0.32908 0.0837,-0.60238 0.0892,-0.27888 0.25657,-0.47968 0.16733,-0.20079 0.40717,-0.31234 0.24541,-0.11156 0.55776,-0.11156 0.28445,0 0.49083,0.0837 0.21195,0.0781 0.30676,0.15059 v -1.55057 l 0.36255,-0.0669 z m -0.36255,-2.27009 q -0.0502,-0.039 -0.12828,-0.0837 -0.0725,-0.0446 -0.17291,-0.0837 -0.10039,-0.039 -0.21752,-0.0614 -0.11713,-0.0279 -0.24542,-0.0279 -0.26772,0 -0.45178,0.0948 -0.17849,0.0948 -0.29004,0.25657 -0.11155,0.15618 -0.16175,0.3737 -0.0502,0.21195 -0.0502,0.45179 0,0.56892 0.28446,0.87568 0.28446,0.30119 0.75298,0.30119 0.26772,0 0.42947,-0.0223 0.16733,-0.0279 0.25099,-0.0558 z m 4.81349,2.03025 v 0.32908 h -2.19758 v -3.86528 h 0.37927 v 3.5362 z m 1.36651,-1.33862 q 0,0.80875 -0.26772,1.48922 -0.26215,0.68047 -0.68605,1.21034 l -0.26214,-0.17848 q 0.44063,-0.54661 0.64142,-1.15457 0.20637,-0.61354 0.20637,-1.36651 0,-0.75298 -0.20637,-1.36094 -0.20079,-0.61354 -0.64142,-1.16014 l 0.26214,-0.17849 q 0.4239,0.52988 0.68605,1.21034 0.26772,0.68047 0.26772,1.48923 z"
       id="text5"
       aria-label="Amazing Multipurpose Policy Engine (and L)" />
    <text
       xml:space="preserve"
       style="font-size:3.175px;text-align:start;writing-mode:lr-tb;direction:ltr;text-anchor:start;fill:none;stroke-width:0.264583"
       x="135.07796"
       y="132.85445"
       id="text1"><tspan
         sodipodi:role="line"
         id="tspan1"
         style="stroke-width:0.264583"
         x="135.07796"
         y="132.85445">r</tspan></text>
  </g>
</svg>
