<svg xmlns="http://www.w3.org/2000/svg" viewBox="0 0 720 140" width="720" height="140">
  <defs>
    <marker id="arr" markerWidth="8" markerHeight="6" refX="8" refY="3" orient="auto">
      <polygon points="0 0, 8 3, 0 6" fill="#555"/>
    </marker>
    <marker id="arrG" markerWidth="8" markerHeight="6" refX="8" refY="3" orient="auto">
      <polygon points="0 0, 8 3, 0 6" fill="#2e7d32"/>
    </marker>
    <marker id="arrO" markerWidth="8" markerHeight="6" refX="8" refY="3" orient="auto">
      <polygon points="0 0, 8 3, 0 6" fill="#f57f17"/>
    </marker>
  </defs>
  <!-- Tekton Provenance -->
  <rect x="10" y="20" width="140" height="100" rx="8" fill="#e3f2fd" stroke="#1565c0" stroke-width="1.5"/>
  <text x="80" y="42" text-anchor="middle" font-family="sans-serif" font-size="12" font-weight="bold" fill="#1565c0">Tekton Provenance</text>
  <text x="80" y="60" text-anchor="middle" font-family="sans-serif" font-size="10" fill="#555">Task references:</text>
  <text x="80" y="76" text-anchor="middle" font-family="sans-serif" font-size="9" fill="#333">bundle@sha256:...</text>
  <text x="80" y="90" text-anchor="middle" font-family="sans-serif" font-size="9" fill="#333">git+https://...@sha1</text>
  <text x="80" y="108" text-anchor="middle" font-family="sans-serif" font-size="9" fill="#888">(PipelineRun or TaskRun)</text>
  <!-- Arrow -->
  <line x1="152" y1="70" x2="185" y2="70" stroke="#555" stroke-width="1.5" marker-end="url(#arr)"/>
  <!-- Policy Check -->
  <rect x="188" y="25" width="150" height="90" rx="8" fill="#fff3e0" stroke="#e65100" stroke-width="1.5"/>
  <text x="263" y="47" text-anchor="middle" font-family="sans-serif" font-size="12" font-weight="bold" fill="#e65100">Policy Engine</text>
  <text x="263" y="65" text-anchor="middle" font-family="sans-serif" font-size="10" fill="#555">Check task refs</text>
  <text x="263" y="80" text-anchor="middle" font-family="sans-serif" font-size="10" fill="#555">against trusted</text>
  <text x="263" y="95" text-anchor="middle" font-family="sans-serif" font-size="10" fill="#555">task allowlist</text>
  <!-- Branch arrows -->
  <line x1="340" y1="50" x2="390" y2="35" stroke="#2e7d32" stroke-width="1.5" marker-end="url(#arrG)"/>
  <line x1="340" y1="90" x2="390" y2="105" stroke="#f57f17" stroke-width="1.5" marker-end="url(#arrO)"/>
  <!-- No warnings path (L3) -->
  <rect x="393" y="8" width="150" height="52" rx="8" fill="#e8f5e9" stroke="#2e7d32" stroke-width="1.5"/>
  <text x="468" y="28" text-anchor="middle" font-family="sans-serif" font-size="11" font-weight="bold" fill="#2e7d32">All tasks trusted</text>
  <text x="468" y="46" text-anchor="middle" font-family="sans-serif" font-size="10" fill="#555">No warnings</text>
  <!-- Warnings path (L2) -->
  <rect x="393" y="80" width="150" height="52" rx="8" fill="#fff8e1" stroke="#f57f17" stroke-width="1.5"/>
  <text x="468" y="100" text-anchor="middle" font-family="sans-serif" font-size="11" font-weight="bold" fill="#f57f17">Untrusted task(s)</text>
  <text x="468" y="118" text-anchor="middle" font-family="sans-serif" font-size="10" fill="#555">Warnings emitted</text>
  <!-- Arrows to VSA boxes -->
  <line x1="545" y1="34" x2="578" y2="34" stroke="#2e7d32" stroke-width="1.5" marker-end="url(#arrG)"/>
  <line x1="545" y1="106" x2="578" y2="106" stroke="#f57f17" stroke-width="1.5" marker-end="url(#arrO)"/>
  <!-- VSA L3 -->
  <rect x="581" y="10" width="125" height="48" rx="8" fill="#c8e6c9" stroke="#2e7d32" stroke-width="2"/>
  <text x="643" y="32" text-anchor="middle" font-family="sans-serif" font-size="12" font-weight="bold" fill="#2e7d32">VSA</text>
  <text x="643" y="48" text-anchor="middle" font-family="sans-serif" font-size="13" font-weight="bold" fill="#1b5e20">SLSA L3</text>
  <!-- VSA L2 -->
  <rect x="581" y="82" width="125" height="48" rx="8" fill="#fff8e1" stroke="#f57f17" stroke-width="2"/>
  <text x="643" y="104" text-anchor="middle" font-family="sans-serif" font-size="12" font-weight="bold" fill="#f57f17">VSA</text>
  <text x="643" y="120" text-anchor="middle" font-family="sans-serif" font-size="13" font-weight="bold" fill="#e65100">SLSA L2</text>
</svg>
